<?xml version="1.0" encoding="UTF-8"?>
<svg xmlns="http://www.w3.org/2000/svg" viewBox="0 0 145 102" width="145" height="102">
  <path d="M46.5 31.43C47.47 34.45 48.44 37.48 49.41 40.5C46.36 43.29 34.11 46.71 29.57 48.74C27.82 49.53 25.11 49.59 24.31 51.5C32.65 54.83 40.98 58.17 49.32 61.5C48.38 64.56 47.44 67.62 46.5 70.68C44.28 71.4 41.06 69.04 38.98 68.19C32.07 65.35 23.96 63.13 17.58 59.24C15.69 58.09 11.45 57.93 10.29 55.89C9.19 53.94 9.89 48.53 10.17 46.31C14.89 42.67 30.65 37.39 36.98 34.81C39.31 33.85 44.15 30.54 46.5 31.43ZM98.5 31.1C110.28 36.01 122.06 40.92 133.84 45.83C133.84 49.28 133.84 52.72 133.84 56.17C122.06 61.12 110.28 66.08 98.5 71.04C96.34 69.76 95.31 63.92 94.87 61.5C103.2 58.17 111.54 54.83 119.87 51.5C118.93 49.28 114.42 48.66 112.27 47.86C107.72 46.17 98.72 43.47 95.05 40.83C95.21 38.5 96.37 32.36 98.5 31.1Z" fill="#343434" fill-rule="evenodd" stroke="#343434" stroke-width="0.25" stroke-linejoin="round"/>
  <path d="M91.51 10.5C92.75 12.19 91.08 15.1 90.3 16.82C88.87 19.94 86.61 26.01 85.82 29.28C83.93 37.11 80.19 44.36 77.9 52.08C74 65.23 69.06 78.16 64.5 91.08C60.35 91.08 56.21 91.08 52.06 91.08C51.61 87.43 57.5 74.97 58.84 70.71C63.05 57.31 68.05 44.1 72.8 30.95C74.26 26.89 77.59 14 79.77 11.26C80.95 9.76 89.27 10.54 91.51 10.5Z" fill="#3366a5" fill-rule="evenodd" stroke="#3366a5" stroke-width="0.25" stroke-linejoin="round"/>
</svg>